<?xml version="1.0" encoding="UTF-8" standalone="no"?>
<!DOCTYPE svg PUBLIC "-//W3C//DTD SVG 1.1//EN" "http://www.w3.org/Graphics/SVG/1.1/DTD/svg11.dtd">
<svg width="100%" height="100%" viewBox="0 0 6331 1276" version="1.1" xmlns="http://www.w3.org/2000/svg" xmlns:xlink="http://www.w3.org/1999/xlink" xml:space="preserve" xmlns:serif="http://www.serif.com/" style="fill-rule:evenodd;clip-rule:evenodd;stroke-linejoin:round;stroke-miterlimit:2;">
    <g transform="matrix(11.5815,0,0,11.5815,2129.67,446.003)">
        <path d="M0,41.016L-9.795,41.016L-9.795,20.569L-20.508,41.016L-26.752,41.016L-37.526,20.447L-37.526,41.016L-47.321,41.016L-47.321,0L-37.404,0L-23.63,25.406L-9.855,0L0,0L0,41.016Z" style="fill:rgb(255,255,255);fill-rule:nonzero;"/>
    </g>
    <g transform="matrix(11.5815,0,0,11.5815,2445.91,677.486)">
        <path d="M0,11.387C1.469,9.897 2.204,7.99 2.204,5.662C2.204,3.336 1.459,1.429 -0.031,-0.061C-1.521,-1.551 -3.245,-2.296 -5.204,-2.296C-7.244,-2.296 -9.02,-1.551 -10.53,-0.061C-12.04,1.429 -12.795,3.336 -12.795,5.662C-12.795,7.99 -12.05,9.897 -10.561,11.387C-9.07,12.876 -7.285,13.621 -5.204,13.621C-3.204,13.621 -1.47,12.876 0,11.387M6.733,-5.968C9.999,-2.948 11.631,0.929 11.631,5.662C11.631,10.438 9.999,14.335 6.733,17.356C3.469,20.375 -0.511,21.886 -5.204,21.886C-9.979,21.886 -14.009,20.375 -17.294,17.356C-20.58,14.335 -22.223,10.438 -22.223,5.662C-22.223,0.929 -20.58,-2.948 -17.294,-5.968C-14.009,-8.989 -9.979,-10.499 -5.204,-10.499C-0.511,-10.499 3.469,-8.989 6.733,-5.968" style="fill:rgb(255,255,255);fill-rule:nonzero;"/>
    </g>
    <g transform="matrix(11.5815,0,0,11.5815,2874.51,532.845)">
        <path d="M0,23.876C1.489,22.386 2.234,20.479 2.234,18.151C2.234,15.866 1.489,13.969 0,12.459C-1.49,10.948 -3.255,10.193 -5.296,10.193C-7.459,10.193 -9.234,10.938 -10.622,12.428C-12.009,13.918 -12.703,15.825 -12.703,18.151C-12.703,20.519 -12.009,22.438 -10.622,23.906C-9.234,25.376 -7.459,26.11 -5.296,26.11C-3.255,26.11 -1.49,25.365 0,23.876M12.029,33.518L2.234,33.518L2.234,31.068C-0.255,33.314 -3.438,34.436 -7.315,34.436C-11.479,34.436 -15.02,32.916 -17.937,29.875C-20.855,26.835 -22.314,22.927 -22.314,18.151C-22.314,13.418 -20.855,9.52 -17.937,6.459C-15.02,3.398 -11.479,1.868 -7.315,1.868C-3.438,1.868 -0.255,2.99 2.234,5.235L2.234,-10.56L12.029,-10.56L12.029,33.518Z" style="fill:rgb(255,255,255);fill-rule:nonzero;"/>
    </g>
    <g transform="matrix(11.5815,0,0,11.5815,3331.12,676.78)">
        <path d="M0,11.448C1.489,9.958 2.234,8.051 2.234,5.723C2.234,3.438 1.489,1.541 0,0.031C-1.49,-1.48 -3.255,-2.235 -5.296,-2.235C-7.459,-2.235 -9.234,-1.49 -10.622,-0C-12.009,1.49 -12.703,3.397 -12.703,5.723C-12.703,8.091 -12.009,10.01 -10.622,11.478C-9.234,12.948 -7.459,13.682 -5.296,13.682C-3.255,13.682 -1.49,12.937 0,11.448M12.029,21.09L2.234,21.09L2.234,18.64C-0.255,20.886 -3.438,22.008 -7.315,22.008C-11.479,22.008 -15.02,20.488 -17.937,17.447C-20.855,14.407 -22.314,10.499 -22.314,5.723C-22.314,0.99 -20.855,-2.908 -17.937,-5.969C-15.02,-9.03 -11.479,-10.56 -7.315,-10.56C-3.438,-10.56 -0.255,-9.438 2.234,-7.193L2.234,-9.642L12.029,-9.642L12.029,21.09Z" style="fill:rgb(255,255,255);fill-rule:nonzero;"/>
    </g>
    <g transform="matrix(11.5815,0,0,11.5815,4192.91,623.961)">
        <path d="M0,10.284C-0.938,15.346 -3.285,19.324 -7.04,22.222C-10.795,25.12 -15.345,26.568 -20.691,26.568C-26.772,26.568 -31.925,24.508 -36.149,20.386C-40.373,16.263 -42.485,11.182 -42.485,5.142C-42.485,-0.857 -40.373,-5.928 -36.149,-10.07C-31.925,-14.213 -26.772,-16.284 -20.691,-16.284C-15.549,-16.284 -11.07,-14.856 -7.254,-11.999C-3.438,-9.142 -1.041,-5.326 -0.061,-0.551L-9.979,1.775C-10.591,-1.123 -11.846,-3.316 -13.743,-4.806C-15.641,-6.296 -17.957,-7.04 -20.691,-7.04C-23.957,-7.04 -26.722,-5.877 -28.986,-3.551C-31.252,-1.225 -32.385,1.673 -32.385,5.142C-32.385,8.611 -31.252,11.519 -28.986,13.866C-26.722,16.213 -23.957,17.386 -20.691,17.386C-17.998,17.386 -15.702,16.621 -13.805,15.09C-11.907,13.559 -10.611,11.305 -9.917,8.325L0,10.284Z" style="fill:rgb(255,255,255);fill-rule:nonzero;"/>
    </g>
    <g transform="matrix(11.5815,0,0,11.5815,4377.97,824.598)">
        <path d="M0,-14.08C-1.224,-13.223 -2.061,-12.039 -2.51,-10.529L10.163,-10.529C9.714,-12.121 8.938,-13.324 7.836,-14.141C6.734,-14.957 5.449,-15.365 3.979,-15.365C2.551,-15.365 1.225,-14.936 0,-14.08M19.835,-4.529L-2.693,-4.529C-2.285,-2.693 -1.489,-1.244 -0.306,-0.184C0.878,0.878 2.286,1.408 3.918,1.408C6.979,1.408 9.163,0.225 10.469,-2.142L19.162,-0.367C17.855,2.816 15.887,5.214 13.254,6.826C10.622,8.439 7.51,9.244 3.918,9.244C-0.612,9.244 -4.448,7.725 -7.591,4.684C-10.733,1.644 -12.305,-2.265 -12.305,-7.04C-12.305,-11.773 -10.733,-15.671 -7.591,-18.732C-4.448,-21.793 -0.592,-23.324 3.979,-23.324C8.428,-23.324 12.162,-21.834 15.183,-18.854C18.202,-15.875 19.754,-11.937 19.835,-7.04L19.835,-4.529Z" style="fill:rgb(255,255,255);fill-rule:nonzero;"/>
    </g>
    <g transform="matrix(11.5815,0,0,11.5815,4989.49,880.263)">
        <path d="M0,-24.61C2.184,-22.263 3.275,-19.172 3.275,-15.336L3.275,3.52L-6.459,3.52L-6.459,-13.254C-6.459,-15.049 -6.948,-16.508 -7.928,-17.631C-8.907,-18.754 -10.173,-19.314 -11.724,-19.314C-13.723,-19.314 -15.284,-18.611 -16.406,-17.203C-17.528,-15.795 -18.09,-13.641 -18.09,-10.744L-18.09,3.52L-27.885,3.52L-27.885,-27.212L-18.09,-27.212L-18.09,-24.273C-15.642,-26.844 -12.499,-28.13 -8.662,-28.13C-5.071,-28.13 -2.184,-26.957 0,-24.61" style="fill:rgb(255,255,255);fill-rule:nonzero;"/>
    </g>
    <g transform="matrix(11.5815,0,0,11.5815,5368.47,486.415)">
        <path d="M0,36.18C-2.816,37.69 -5.612,38.445 -8.388,38.445C-12.265,38.445 -15.274,37.405 -17.417,35.323C-19.56,33.242 -20.631,30.201 -20.631,26.201L-20.631,14.57L-26.202,14.57L-26.202,6.795L-20.631,6.795L-20.631,-2.265L-10.836,-2.265L-10.836,6.795L-1.775,6.795L-1.775,14.57L-10.836,14.57L-10.836,25.222C-10.836,28.201 -9.469,29.691 -6.734,29.691C-5.184,29.691 -3.693,29.283 -2.266,28.466L0,36.18Z" style="fill:rgb(255,255,255);fill-rule:nonzero;"/>
    </g>
    <g transform="matrix(11.5815,0,0,11.5815,5523.76,824.598)">
        <path d="M0,-14.08C-1.224,-13.223 -2.061,-12.039 -2.51,-10.529L10.162,-10.529C9.714,-12.121 8.938,-13.324 7.836,-14.141C6.734,-14.957 5.449,-15.365 3.979,-15.365C2.551,-15.365 1.225,-14.936 0,-14.08M19.835,-4.529L-2.693,-4.529C-2.285,-2.693 -1.489,-1.244 -0.306,-0.184C0.878,0.878 2.286,1.408 3.918,1.408C6.979,1.408 9.163,0.225 10.469,-2.142L19.162,-0.367C17.855,2.816 15.887,5.214 13.254,6.826C10.622,8.439 7.51,9.244 3.918,9.244C-0.611,9.244 -4.448,7.725 -7.591,4.684C-10.733,1.644 -12.305,-2.265 -12.305,-7.04C-12.305,-11.773 -10.733,-15.671 -7.591,-18.732C-4.448,-21.793 -0.592,-23.324 3.979,-23.324C8.428,-23.324 12.162,-21.834 15.183,-18.854C18.202,-15.875 19.754,-11.937 19.835,-7.04L19.835,-4.529Z" style="fill:rgb(255,255,255);fill-rule:nonzero;"/>
    </g>
    <g transform="matrix(11.5815,0,0,11.5815,6073.95,918.19)">
        <path d="M0,-30.67L-0.429,-20.875L-2.204,-20.875C-9.265,-20.875 -12.795,-17.039 -12.795,-9.366L-12.795,0.245L-22.59,0.245L-22.59,-30.486L-12.795,-30.486L-12.795,-24.609C-10.265,-28.813 -6.734,-30.915 -2.204,-30.915C-1.388,-30.915 -0.653,-30.834 0,-30.67" style="fill:rgb(255,255,255);fill-rule:nonzero;"/>
    </g>
    <g transform="matrix(11.5815,0,0,11.5815,254.825,9.00463)">
        <path d="M0,70.653C2.644,70.384 5.29,70.257 7.929,70.267C32.548,60.371 50.775,37.928 54.684,10.851L35.884,0L17.311,10.72C20.965,17.08 23.062,24.461 23.062,32.327C23.062,48.939 13.716,63.362 0,70.653" style="fill:rgb(40,122,168);fill-rule:nonzero;"/>
    </g>
    <g transform="matrix(11.5815,0,0,11.5815,699.64,629.638)">
        <path d="M0,-36.525C0,-42.46 -0.884,-48.187 -2.521,-53.587L-2.524,-53.589L-21.097,-42.869C-17.442,-36.509 -15.346,-29.127 -15.346,-21.262C-15.346,-4.65 -24.692,9.773 -38.407,17.064C-36.935,16.915 -35.463,16.814 -33.991,16.751C-13.918,7.414 0,-12.929 0,-36.525" style="fill:rgb(238,128,42);fill-rule:nonzero;"/>
    </g>
    <g transform="matrix(11.5815,0,0,11.5815,820.426,1262.24)">
        <path d="M0,-77.259C-1.089,-74.835 -2.302,-72.48 -3.63,-70.199C-7.37,-43.931 2.953,-16.924 24.448,0L43.246,-10.856L43.248,-32.301C35.913,-32.316 28.472,-34.191 21.661,-38.124C7.274,-46.43 -0.544,-61.735 0,-77.259" style="fill:rgb(234,185,52);fill-rule:nonzero;"/>
    </g>
    <g transform="matrix(11.5815,0,0,11.5815,1135.51,440.987)">
        <path d="M0,53.709C5.14,56.676 10.541,58.775 16.036,60.057L16.04,60.055L16.042,38.61C8.707,38.596 1.266,36.72 -5.545,32.788C-19.932,24.482 -27.75,9.176 -27.206,-6.348C-27.812,-4.998 -28.461,-3.672 -29.143,-2.366C-31.093,19.686 -20.435,41.911 0,53.709" style="fill:rgb(238,67,48);fill-rule:nonzero;"/>
    </g>
    <g transform="matrix(11.5815,0,0,11.5815,935.464,940.823)">
        <path d="M0,12.635C-1.555,10.48 -2.988,8.252 -4.299,5.961C-25.178,-10.411 -53.728,-14.975 -79.132,-4.822L-79.129,16.885L-60.559,27.61C-56.878,21.265 -51.534,15.759 -44.722,11.826C-30.336,3.52 -13.172,4.402 0,12.635" style="fill:rgb(21,166,100);fill-rule:nonzero;"/>
    </g>
    <g transform="matrix(11.5815,0,0,11.5815,175.564,1123.95)">
        <path d="M0,-9.644C-5.14,-6.677 -9.658,-3.048 -13.516,1.07L-13.516,1.074L5.055,11.798C8.735,5.453 14.08,-0.053 20.891,-3.986C35.277,-12.292 52.441,-11.41 65.614,-3.177C64.748,-4.377 63.924,-5.602 63.133,-6.845C45.011,-19.56 20.435,-21.442 0,-9.644" style="fill:rgb(209,211,212);fill-rule:nonzero;"/>
    </g>
</svg>
